<svg width="35" height="34" viewBox="0 0 35 34" fill="none" xmlns="http://www.w3.org/2000/svg">
<path d="M14.304 24.4997L24.304 16.9997L14.304 9.49967V24.4997ZM17.6374 0.333008C8.43737 0.333008 0.970703 7.79967 0.970703 16.9997C0.970703 26.1997 8.43737 33.6663 17.6374 33.6663C26.8374 33.6663 34.304 26.1997 34.304 16.9997C34.304 7.79967 26.8374 0.333008 17.6374 0.333008ZM17.6374 30.333C10.2874 30.333 4.30404 24.3497 4.30404 16.9997C4.30404 9.64968 10.2874 3.66634 17.6374 3.66634C24.9874 3.66634 30.9707 9.64968 30.9707 16.9997C30.9707 24.3497 24.9874 30.333 17.6374 30.333Z" fill="#0158BB"/>
</svg>
