<svg width="33" height="49" viewBox="0 0 33 49" fill="none" xmlns="http://www.w3.org/2000/svg">
<path d="M3.28819 25.1393H0.245754C-0.768391 25.1393 1.57493 21.3303 3.28819 21.3303H8.35891C8.86599 21.3303 7.59831 14.7281 7.59831 14.7281C7.59831 14.7281 6.33062 11.173 5.57001 9.3955C4.80941 7.61797 1.51343 4.31685 1.2599 3.30112C1.00636 2.28539 1.2599 0 1.2599 0L6.8377 4.31685C6.8377 4.31685 12.162 7.61797 13.4296 9.3955C14.6973 11.173 15.2044 11.9348 15.7115 13.9663C16.2185 15.9977 15.965 20.3146 17.2327 21.3303C18.5004 22.3461 21.7963 22.3461 21.7963 22.3461C21.7963 22.3461 27.1206 21.5843 29.1489 21.8382C31.1772 22.0921 31.4307 25.9011 31.4307 25.9011C31.4307 25.9011 27.8812 25.6472 25.3458 25.6472C22.8105 25.6472 21.0357 26.155 21.0357 26.155L23.5711 30.9798C23.5711 30.9798 26.6135 38.5977 27.6277 40.3752C28.6418 42.1528 32.9519 47.4854 32.4449 47.9932C31.9378 48.5011 21.0357 40.8831 19.5145 38.8517C17.9933 36.8202 16.9791 34.0269 16.2185 32.5033C15.4579 30.9798 14.9509 29.7101 13.1761 29.4562C11.4013 29.2022 8.92747 29.4562 6.8377 28.9483C4.74792 28.4404 3.28819 25.1393 3.28819 25.1393Z" fill="url(#paint0_linear_410_5796)"/>
<defs>
<linearGradient id="paint0_linear_410_5796" x1="2.33554" y1="1.52359" x2="27.2393" y2="43.1343" gradientUnits="userSpaceOnUse">
<stop stop-color="#111D37"/>
<stop offset="1" stop-color="#1C2942"/>
</linearGradient>
</defs>
</svg>
