<svg width="66" height="60" viewBox="0 0 66 60" fill="none" xmlns="http://www.w3.org/2000/svg">
<g clip-path="url(#clip0_584_7198)">
<path d="M27.5 41.25L44 30L27.5 18.75V41.25ZM33 5C17.82 5 5.5 16.2 5.5 30C5.5 43.8 17.82 55 33 55C48.18 55 60.5 43.8 60.5 30C60.5 16.2 48.18 5 33 5ZM33 50C20.8725 50 11 41.025 11 30C11 18.975 20.8725 10 33 10C45.1275 10 55 18.975 55 30C55 41.025 45.1275 50 33 50Z" fill="white"/>
</g>
<defs>
<clipPath id="clip0_584_7198">
<rect width="66" height="60" fill="white"/>
</clipPath>
</defs>
</svg>
