<svg width="68" height="70" viewBox="0 0 68 70" fill="none" xmlns="http://www.w3.org/2000/svg">
<path d="M27.3337 50.3869L47.3337 35.046L27.3337 19.7051V50.3869ZM34.0003 0.955078C15.6003 0.955078 0.666992 16.2278 0.666992 35.046C0.666992 53.8642 15.6003 69.1369 34.0003 69.1369C52.4003 69.1369 67.3337 53.8642 67.3337 35.046C67.3337 16.2278 52.4003 0.955078 34.0003 0.955078ZM34.0003 62.3187C19.3003 62.3187 7.33366 50.0801 7.33366 35.046C7.33366 20.0119 19.3003 7.77326 34.0003 7.77326C48.7003 7.77326 60.667 20.0119 60.667 35.046C60.667 50.0801 48.7003 62.3187 34.0003 62.3187Z" fill="white"/>
</svg>
