<svg width="84" height="91" viewBox="0 0 84 91" fill="none" xmlns="http://www.w3.org/2000/svg">
<g filter="url(#filter0_d_410_5691)">
<path d="M35.3337 56.2502L55.3337 40.9093L35.3337 25.5684V56.2502ZM42.0003 6.81836C23.6003 6.81836 8.66699 22.0911 8.66699 40.9093C8.66699 59.7275 23.6003 75.0002 42.0003 75.0002C60.4003 75.0002 75.3337 59.7275 75.3337 40.9093C75.3337 22.0911 60.4003 6.81836 42.0003 6.81836ZM42.0003 68.182C27.3003 68.182 15.3337 55.9434 15.3337 40.9093C15.3337 25.8752 27.3003 13.6365 42.0003 13.6365C56.7003 13.6365 68.667 25.8752 68.667 40.9093C68.667 55.9434 56.7003 68.182 42.0003 68.182Z" fill="white"/>
</g>
<defs>
<filter id="filter0_d_410_5691" x="-6" y="0" width="96" height="97.8184" filterUnits="userSpaceOnUse" color-interpolation-filters="sRGB">
<feFlood flood-opacity="0" result="BackgroundImageFix"/>
<feColorMatrix in="SourceAlpha" type="matrix" values="0 0 0 0 0 0 0 0 0 0 0 0 0 0 0 0 0 0 127 0" result="hardAlpha"/>
<feOffset dy="8"/>
<feGaussianBlur stdDeviation="4"/>
<feColorMatrix type="matrix" values="0 0 0 0 0.133333 0 0 0 0 0.133333 0 0 0 0 0.160784 0 0 0 0.24 0"/>
<feBlend mode="normal" in2="BackgroundImageFix" result="effect1_dropShadow_410_5691"/>
<feBlend mode="normal" in="SourceGraphic" in2="effect1_dropShadow_410_5691" result="shape"/>
</filter>
</defs>
</svg>
